<svg xmlns="http://www.w3.org/2000/svg" width="26" height="26"><path d="M3.598 8.031a3.568 3.568 0 01-1.465-.883 3.685 3.685 0 01-.446-.546A12.912 12.912 0 000 13c0 2.324.613 4.508 1.688 6.398a3.59 3.59 0 01.445-.546 3.568 3.568 0 011.465-.883A10.554 10.554 0 012.363 13c0-1.793.446-3.484 1.235-4.969zm20.715-1.429a3.495 3.495 0 01-.446.546 3.568 3.568 0 01-1.465.883A10.554 10.554 0 0123.637 13c0 1.793-.446 3.484-1.235 4.969a3.568 3.568 0 011.465.883c.168.168.317.351.445.546A12.912 12.912 0 0026 13c0-2.324-.613-4.508-1.688-6.398zm-5.461 17.265a3.558 3.558 0 01-.88-1.465A10.616 10.616 0 0113 23.637c-1.793 0-3.488-.45-4.973-1.235a3.495 3.495 0 01-1.426 1.91A12.912 12.912 0 0013 26c2.324 0 4.508-.613 6.398-1.688a3.495 3.495 0 01-.546-.445zM13 0c-2.324 0-4.508.613-6.398 1.688a3.495 3.495 0 011.425 1.91A10.616 10.616 0 0113 2.363c1.793 0 3.488.45 4.973 1.235a3.495 3.495 0 011.426-1.91A12.912 12.912 0 0013 0zm9.195 20.523a1.177 1.177 0 00-1.672 0 1.185 1.185 0 000 1.672c.23.23.532.344.836.344a1.18 1.18 0 00.836-2.016zM5.477 3.805a1.173 1.173 0 00-.836-.344 1.18 1.18 0 00-.836 2.016 1.177 1.177 0 001.672 0c.46-.461.46-1.211 0-1.672zm16.718 0a1.18 1.18 0 00-.836-.344c-.304 0-.605.113-.836.344a1.184 1.184 0 00.836 2.02 1.184 1.184 0 00.836-2.02zM5.477 20.523a1.177 1.177 0 00-1.672 0 1.18 1.18 0 00.836 2.016c.304 0 .605-.113.836-.344.46-.46.46-1.21 0-1.672zM13 4.727A8.272 8.272 0 004.727 13 8.272 8.272 0 0013 21.273 8.272 8.272 0 0021.273 13 8.272 8.272 0 0013 4.727zm5.79 9.457h-3.427v2.363h2.36A5.9 5.9 0 0113 18.91a5.916 5.916 0 01-5.79-4.726h3.427v-2.368H7.21A5.916 5.916 0 0113 7.09a5.9 5.9 0 014.723 2.363h-3.934v2.363h5a5.905 5.905 0 010 2.368zm0 0" id="surface1"/></svg>