<svg xmlns="http://www.w3.org/2000/svg" width="26" height="26"><g id="surface1" fill="#fff"><path d="M19.5 17.371a.618.618 0 00-.176-.332.653.653 0 00-.578-.176c-.039.012-.082.024-.121.04a.659.659 0 00-.207.137.452.452 0 00-.078.097c-.024.035-.043.074-.063.113a.618.618 0 00-.047.246.642.642 0 101.27-.125zm0 0"/><path d="M25.73 21.477c-.386-1.403-1.214-3.114-2.394-4.957.375-1.106.582-2.29.582-3.52C23.918 6.98 19.02 2.082 13 2.082c-.086 0-.172.004-.258.004-.039 0-.074.004-.113.004-.043 0-.09.004-.137.004-.05.004-.101.008-.152.008-.027.003-.059.003-.09.007-.059.004-.121.008-.184.016h-.035c-.883.078-1.738.262-2.55.54C7.632 1.484 5.92.655 4.515.264 2.796-.206 1.527-.046.742.739-.465 1.945-.195 4.29 1.516 7.52a27.88 27.88 0 001.148 1.96A10.938 10.938 0 002.082 13c0 4.922 3.277 9.094 7.762 10.45.011.003.023.01.039.015l.082.023c.066.02.133.035.2.055l.155.039c.09.023.184.047.274.066l.117.024c.09.02.18.039.27.055a10.242 10.242 0 00.41.07l.082.012c.097.015.195.027.293.039.023 0 .046.004.074.007.117.012.234.024.351.032.02 0 .043.004.063.004.098.007.2.011.297.015.031 0 .062.004.094.004.117.004.238.008.355.008.086 0 .168-.004.254-.004.023 0 .047-.004.07-.004.067 0 .133-.004.2-.008h.058c.176-.011.352-.023.527-.043h.016c.82-.086 1.625-.261 2.398-.523.668.426 1.32.812 1.957 1.148C20.383 25.492 21.98 26 23.22 26c.86 0 1.547-.246 2.043-.742.789-.785.945-2.059.468-3.781zM8.465 4.504c.062-.035.125-.066.187-.098.078-.039.153-.078.23-.113l.067-.031a9.682 9.682 0 013.39-.871h.02v4.554c-.004.008-.004.016-.004.024a.448.448 0 01-.895 0c-.003-.008-.003-.016-.003-.024v-1.02a1.735 1.735 0 00-3.469 0V9.11c0 .25-.203.454-.453.454a.453.453 0 01-.45-.454V5.402a9.74 9.74 0 011.306-.859c.027-.012.05-.027.074-.04zM2.652 6.918C1.293 4.352.918 2.378 1.648 1.648c.66-.66 2.715-.578 6.387 1.63a10.92 10.92 0 00-2 1.316.414.414 0 00-.058.058A10.914 10.914 0 003.28 8.035c-.226-.379-.437-.75-.629-1.117zm6.77 15.023C5.879 20.52 3.367 17.047 3.367 13c0-.73.082-1.445.238-2.129 1.454 2.043 3.262 4.172 5.31 6.215.167.168.339.336.507.504zm5.535.493l-.066.011c-.102.02-.207.04-.309.055l-.137.023a19.005 19.005 0 00-.316.043l-.121.012c-.098.012-.192.02-.285.027-.028 0-.059.004-.086.004-.078.008-.157.012-.235.016h-.09c-.105.004-.207.008-.312.008-.09 0-.18-.004-.273-.004-.028 0-.055-.004-.082-.004-.063-.004-.125-.004-.188-.008-.035-.004-.066-.004-.098-.008l-.175-.011c-.036-.004-.067-.008-.102-.008-.059-.008-.117-.012-.176-.02l-.094-.011c-.062-.008-.128-.016-.19-.028-.028-.004-.052-.004-.079-.008-.082-.015-.168-.027-.254-.043l-.113-.023a1.785 1.785 0 01-.14-.027 1.91 1.91 0 01-.145-.032 1.963 1.963 0 01-.102-.023c-.027-.008-.055-.012-.082-.02v-3.554a46.905 46.905 0 004.422 3.594c-.055.011-.113.027-.172.039zm-2.34-3.653a48.652 48.652 0 01-1.91-1.738v-.656c0-.012.004-.028.004-.04a.826.826 0 01.82-.761.83.83 0 01.828.8v1.384c0 .367.094.71.258 1.011zm1.18.989a2.11 2.11 0 002.781-2v-2.934c0-.457.371-.828.824-.828.457 0 .828.37.828.828v.734a.641.641 0 001.282 0v-.734a2.114 2.114 0 00-2.11-2.113c-1.16 0-2.109.949-2.109 2.113v2.934a.825.825 0 01-1.652 0V16.3a.607.607 0 00-.016-.144 2.117 2.117 0 00-2.094-1.855c-.96 0-1.785.656-2.031 1.55-2.133-2.167-3.984-4.41-5.402-6.527A9.7 9.7 0 015.8 6.605V9.11c0 .957.781 1.735 1.734 1.735A1.74 1.74 0 009.272 9.11V6.926c0-.25.2-.453.45-.453.246 0 .449.203.449.453v1.09a.77.77 0 00.015.136 1.74 1.74 0 001.72 1.52 1.744 1.744 0 001.734-1.656V3.39c5.015.332 8.992 4.511 8.992 9.609 0 1.14-.2 2.234-.567 3.25a.738.738 0 00-.086.234 9.658 9.658 0 01-2.468 3.606v-.668a.642.642 0 10-1.282 0v1.664a9.645 9.645 0 01-1.554.816 39.702 39.702 0 01-2.88-2.132zm10.555 4.582c-.73.73-2.704.355-5.27-1.004a25.255 25.255 0 01-1.113-.625 11.06 11.06 0 001.328-.809 11.027 11.027 0 003.426-3.95c2.207 3.673 2.289 5.727 1.629 6.388zm0 0"/></g></svg>