<svg xmlns="http://www.w3.org/2000/svg" width="26" height="26"><path d="M23.887 19.418c-.242-1.3-.973-2.438-1.95-3.25l-1.542-1.3a4.6 4.6 0 01-.895-.891v3.085c0 .489-.324.813-.813.813-.488 0-.812-.324-.812-.813V8.938c0-4.062-2.113-7.312-4.875-7.312s-4.875 3.25-4.875 7.313v8.124c0 .489-.324.813-.813.813-.488 0-.812-.324-.812-.813v-3.085a4.6 4.6 0 01-.895.89l-1.543 1.301c-.976.812-1.707 1.95-1.949 3.25l-.488 2.355a.631.631 0 00.164.653c.16.242.406.324.649.324h5.687v.813c0 .488.324.812.813.812h3.25v-7.313c0-.488.324-.812.812-.812.488 0 .813.324.813.813v7.312h3.25c.488 0 .812-.324.812-.813v-.812h5.688c.242 0 .488-.082.648-.324a.632.632 0 00.164-.653zm-9.262-10.48c-.488 0-.813-.325-.813-.813 0-.488-.324-.813-.812-.813-.488 0-.813.325-.813.813 0 .488-.324.813-.812.813-.488 0-.813-.325-.813-.813 0-1.383 1.055-2.438 2.438-2.438 1.383 0 2.438 1.055 2.438 2.438 0 .488-.325.813-.813.813zm0 0" fill="#fff" id="surface1"/></svg>