<svg width="29" height="22" fill="none" xmlns="http://www.w3.org/2000/svg"><path d="M5.279 21.876V20.42a.844.844 0 00-.255-.668.89.89 0 00-.682-.255.941.941 0 00-.476.095.913.913 0 00-.36.318.865.865 0 00-.335-.312.893.893 0 00-.452-.1.804.804 0 00-.396.081.78.78 0 00-.301.263v-.286h-.518v2.32h.523V20.6a.53.53 0 01.142-.442.559.559 0 01.44-.174c.344 0 .518.218.518.612v1.29h.523V20.6a.533.533 0 01.144-.44.56.56 0 01.439-.176c.353 0 .523.218.523.612v1.29l.523-.009zm7.736-2.32h-.852v-.704h-.523v.704h-.473v.46h.483v1.069c0 .539.214.86.827.86.229 0 .453-.063.647-.18l-.15-.433a.974.974 0 01-.457.131c-.25 0-.344-.155-.344-.388v-1.058h.847l-.005-.461zm4.417-.059a.717.717 0 00-.362.086.695.695 0 00-.266.254v-.281h-.512v2.32h.517v-1.3c0-.384.17-.598.498-.598a.872.872 0 01.324.058l.16-.485a1.131 1.131 0 00-.37-.063l.01.01zm-6.678.243a1.817 1.817 0 00-.971-.242c-.603 0-.996.281-.996.742 0 .379.289.612.822.685l.249.034c.283.038.418.111.418.242 0 .18-.19.282-.543.282a1.29 1.29 0 01-.792-.243l-.249.393c.302.206.663.311 1.031.301.687 0 1.086-.315 1.086-.757s-.314-.621-.832-.694l-.249-.034c-.224-.03-.403-.073-.403-.228 0-.155.169-.272.453-.272.262.003.52.071.747.199l.229-.408zm13.871-.242a.717.717 0 00-.361.085.695.695 0 00-.266.254v-.281H23.5v2.32h.515v-1.3c0-.384.17-.598.498-.598a.872.872 0 01.324.058l.16-.485a1.132 1.132 0 00-.37-.063l-.002.01zm-6.67 1.213a1.145 1.145 0 00.36.88 1.207 1.207 0 00.91.334c.31.015.616-.084.856-.277l-.249-.408a1.06 1.06 0 01-.622.209.772.772 0 01-.5-.238.735.735 0 010-1.01.773.773 0 01.5-.238c.225.003.443.076.622.21l.25-.408a1.266 1.266 0 00-.857-.277 1.23 1.23 0 00-.91.333 1.17 1.17 0 00-.36.88v.01zm4.85 0v-1.155h-.518v.281a.924.924 0 00-.747-.34c-.33 0-.647.128-.88.356a1.198 1.198 0 00-.365.858c0 .322.131.63.365.858.233.228.55.356.88.356a.924.924 0 00.747-.34v.281h.518v-1.155zm-1.927 0a.691.691 0 01.141-.377.737.737 0 011.1-.064.686.686 0 01.14.758.706.706 0 01-.265.309.733.733 0 01-.681.062.714.714 0 01-.394-.405.682.682 0 01-.041-.283zm-6.25-1.213a1.26 1.26 0 00-.875.367 1.195 1.195 0 00.025 1.716c.236.225.555.348.885.344a1.47 1.47 0 00.986-.316l-.249-.374c-.197.154-.44.24-.692.243a.674.674 0 01-.474-.144.641.641 0 01-.238-.424h1.768v-.194c0-.728-.463-1.214-1.13-1.214l-.006-.005zm0 .451a.6.6 0 01.421.16.575.575 0 01.182.403h-1.245a.592.592 0 01.198-.407.622.622 0 01.434-.156h.01zm12.973.767v-2.092h-.498v1.213a.924.924 0 00-.747-.34c-.33 0-.647.128-.88.356a1.198 1.198 0 00-.365.858c0 .322.131.63.364.858.234.228.55.356.88.356a.924.924 0 00.748-.34v.281h.498v-1.15zm-1.927 0a.69.69 0 01.14-.378.718.718 0 01.331-.24.738.738 0 01.77.177.695.695 0 01.139.758.706.706 0 01-.264.309.734.734 0 01-.682.062.714.714 0 01-.394-.406.682.682 0 01-.04-.282zm-17.487 0v-1.16H7.68v.281a.924.924 0 00-.747-.34c-.33 0-.646.128-.88.356a1.198 1.198 0 00-.365.858c0 .322.132.63.365.858.234.228.55.356.88.356a.924.924 0 00.747-.34v.281h.52l-.012-1.15zm-1.927 0a.69.69 0 01.14-.378.718.718 0 01.331-.24.738.738 0 01.77.177.695.695 0 01.139.758.706.706 0 01-.264.309.734.734 0 01-.68.06.715.715 0 01-.389-.405.68.68 0 01-.04-.281H6.26zm22.205.823a.252.252 0 01.169.068.24.24 0 01.052.073.216.216 0 010 .18.197.197 0 01-.052.072.223.223 0 01-.17.068.237.237 0 01-.171-.068.215.215 0 01-.07-.163c0-.03.006-.061.018-.09a.242.242 0 01.231-.14h-.007zm0 .41a.243.243 0 00.072 0 .188.188 0 00.097-.097.208.208 0 000-.07.219.219 0 000-.07.174.174 0 00-.04-.057.216.216 0 00-.057-.039.222.222 0 00-.145 0 .193.193 0 00-.1.095.209.209 0 000 .14.19.19 0 00.04.06.251.251 0 00.06.038.242.242 0 00.08 0h-.007zm.015-.287a.101.101 0 01.064.018.063.063 0 01.022.051.058.058 0 01-.017.044.085.085 0 01-.052.021l.072.08h-.057l-.067-.08h-.02v.08h-.047v-.213h.102zm-.055.04v.058h.052c.01.002.02.002.03 0a.026.026 0 000-.044.054.054 0 00-.03 0l-.052-.015zm-.282-7.544v-.282h.118v-.056h-.297v.056h.135v.282h.044zm.576 0v-.338h-.09l-.105.243-.104-.243h-.072v.338h.064v-.243l.098.22h.067l.097-.22v.243h.045zm-15.017 1.699l.217.175a9.122 9.122 0 01-4.538 1.446 9.153 9.153 0 01-4.656-1.029 8.87 8.87 0 01-3.454-3.213A8.572 8.572 0 010 8.75c0-1.58.44-3.13 1.271-4.486a8.87 8.87 0 013.454-3.213A9.154 9.154 0 019.381.02a9.123 9.123 0 014.538 1.447l-.217.175a9.435 9.435 0 00-2.452 3.2 9.21 9.21 0 00-.87 3.903c0 1.347.297 2.678.87 3.903a9.436 9.436 0 002.452 3.2v.008zM20.044.007a9.09 9.09 0 00-4.963 1.457l.217.174a9.428 9.428 0 012.454 3.2 9.205 9.205 0 01.87 3.903 9.205 9.205 0 01-.87 3.904 9.43 9.43 0 01-2.454 3.2l-.217.174a9.11 9.11 0 003.883 1.394 9.182 9.182 0 004.112-.455 8.99 8.99 0 003.463-2.206 8.69 8.69 0 002.078-3.488 8.526 8.526 0 00.25-4.026 8.625 8.625 0 00-1.632-3.707A8.911 8.911 0 0024.069.934 9.153 9.153 0 0020.044 0v.007zm-5.54 1.872a8.76 8.76 0 00-2.614 3.243 8.553 8.553 0 00-.807 3.622c0 1.25.275 2.485.807 3.623a8.76 8.76 0 002.614 3.245c.117-.09.229-.182.338-.275a8.76 8.76 0 002.275-2.97 8.552 8.552 0 00.807-3.623 8.55 8.55 0 00-.807-3.623 8.76 8.76 0 00-2.613-3.242z" fill="#7F7F7F"/></svg>