<svg width="47" height="12" fill="none" xmlns="http://www.w3.org/2000/svg"><path fill-rule="evenodd" clip-rule="evenodd" d="M33.385 5.422V12h3.99V8.102h4.522c1.903-.013 3.52-1.127 4.13-2.68H33.384zM32.852 0c.233 2.689 3.01 4.812 6.402 4.812h6.938a3.75 3.75 0 00.078-.761c0-2.228-1.962-4.035-4.39-4.05L32.853 0zm-5.908 4.748l.003-.006a.244.244 0 01.21-.113c.13 0 .235.095.239.214v7.096h3.99V0h-3.99c-.506.015-1.078.356-1.29.773L22.93 7.01a.235.235 0 01-.036.071v.002h-.001a.273.273 0 01-.219.105c-.147 0-.266-.11-.266-.244V0h-3.99v11.939h3.99v-.001c.5-.024 1.059-.36 1.268-.772l3.26-6.402a.196.196 0 01.008-.016zm-14.897.204L9.715 11.94h-2.87L4.51 4.948a.258.258 0 00-.258-.197c-.145 0-.263.108-.263.24v6.949H0V0h4.445c.734 0 1.503.522 1.718 1.165l1.942 5.817c.096.29.253.29.35 0l1.942-5.817C10.61.52 11.38 0 12.115 0h4.444v11.939h-3.99V4.992c0-.133-.118-.24-.263-.24-.13 0-.238.086-.259.2z" fill="#7F7F7F"/></svg>