<svg width="42" height="13" fill="none" xmlns="http://www.w3.org/2000/svg"><path d="M16.462.21l-2.09 12.262h3.342L19.805.21h-3.343zM11.57.224L8.297 8.586l-.35-1.263C7.303 5.802 5.47 3.617 3.32 2.24l2.99 10.225 3.536-.006L15.11.221l-3.54.003z" fill="#7F7F7F"/><path d="M6.68 1.102C6.485.355 5.922.132 5.224.106H.043L0 .35c4.032.978 6.7 3.335 7.806 6.168L6.68 1.102zm19.896 1.459a6.17 6.17 0 012.5.47l.302.141.453-2.657A8.626 8.626 0 0026.837 0c-3.302 0-5.63 1.663-5.648 4.046-.021 1.761 1.658 2.745 2.927 3.332 1.302.601 1.739.984 1.733 1.52-.01.822-1.039 1.198-1.999 1.198-1.338 0-2.049-.185-3.146-.642l-.43-.196-.47 2.744c.781.343 2.224.638 3.722.653 3.513 0 5.796-1.643 5.82-4.19.014-1.393-.877-2.456-2.808-3.328-1.169-.569-1.884-.947-1.877-1.521 0-.51.607-1.055 1.915-1.055zM38.408.225h-2.581c-.802 0-1.399.218-1.751 1.017L29.114 12.48h3.51s.572-1.511.702-1.842l4.279.005c.1.428.407 1.837.407 1.837h3.1L38.408.225zm-4.12 7.902l1.33-3.426c-.018.033.273-.71.446-1.17l.225 1.056.774 3.54h-2.776z" fill="#7F7F7F"/></svg>