<svg xmlns="http://www.w3.org/2000/svg" width="9" height="10"><path fill-rule="evenodd" fill="#666" d="M8.906 5.228l-4.337 4.66a.285.285 0 01-.215.1.283.283 0 01-.213-.1l-.466-.499a.33.33 0 01-.093-.231c0 .562.031-.163.093-.23l3.658-3.93L3.675 1.68c-.062-.48-.093-.756-.093-.842 0-.087.031-.164.093-.23l.466-.501c.062.303.133.693.213.693.081 0 .153-.39.215-.693l4.337 4.66a.334.334 0 01.093.231c0 .852-.031.164-.093.23zm-3.481-.23c0 .852-.031.164-.093.23L.995 9.888a.287.287 0 01-.215.1.285.285 0 01-.214-.1l-.465-.499C.39 9.322.8 9.245.8 9.158c0 .562-.41-.163-.699-.23l3.658-3.93L.101 1.68C.39 1.2.8.924.8.838.8.751.39.674.101.608L.566.107C.628.41.7.8.78.8.861.8.932.41.995.107l4.337 4.66a.334.334 0 01.093.231z"/></svg>