<svg xmlns="http://www.w3.org/2000/svg" width="400" height="400"><g id="surface1"><path d="M188.125.313c-9.813.625-20.531 2.062-29.438 3.968l-2.437.5-1.813 2.375C138.22 28.125 127.75 64.594 123.47 115c-1.531 17.813-1.969 30.063-1.938 52.188.031 10.218.156 19.468.281 20.5l.22 1.906 17.937-31.063 17.937-31.094 2.688-1.718C191 106.03 227.563 86.78 256.406 75.25c31.219-12.5 57-18.438 78.063-18.031 3.031.062 5.531.062 5.5-.032-.063-.343-8.156-7.656-12.156-11-17.625-14.656-38.032-26.374-59.688-34.25-16.219-5.874-32.5-9.5-50.469-11.187-6-.531-23.625-.813-29.531-.438zm0 0"/><path d="M140.625 8.969C109.406 18.75 81.187 35.875 58.187 59.03 36.75 80.594 20.97 105.938 10.75 135.187l-1.719 4.938 1 2.5c6.594 16.688 22.188 36.063 44.657 55.438 24.468 21.062 56.343 42.312 94.812 63.156 1.625.906 2.406 1.187 2.281.844-.187-.5-32.031-55.75-34.437-59.72-.719-1.218-1.313-2.405-1.313-2.655s-.187-5.407-.406-11.407c-.281-7.344-.344-16.937-.219-29.219.188-18.03.375-23.843 1.313-37.343C120.25 71.5 130.313 32 145.344 9.28c.687-1 1.219-1.875 1.219-1.969 0-.218-.22-.156-5.938 1.657zm183.594 54.656c-.5.063-2.469.281-4.375.469-31.375 3.094-77 20.781-126.531 49-6.72 3.844-21.032 12.406-22.782 13.625-.594.406 3.219.469 35.219.469h35.906l5.813 3.03C270.188 142 296.719 158 316.25 171.689c37.688 26.375 63.344 51.843 75.406 74.812 1 1.938 1.906 3.5 1.938 3.438.25-.22 1.75-6.72 2.625-11.188 1.219-6.281 2.375-14.344 3.062-21.406.75-7.844.75-26.75 0-34.688-2.531-26.344-8.969-49.094-20.25-71.719-6.594-13.187-13.875-24.656-22.625-35.53-3.781-4.72-8.75-10.47-9.375-10.782-1.062-.625-8.781-1.188-15.156-1.156-3.688.031-7.125.125-7.656.156zm0 0"/><path d="M248.219 137.875c.094.281 8.156 14.313 17.906 31.188 14.25 24.687 17.75 30.968 17.844 32 .719 9.187.969 41.968.406 56.28-1.719 44.5-7.219 79.563-16.719 106.25-3.719 10.407-8.594 20.563-13.031 27.126-.688 1-1.188 1.875-1.125 1.937.031.063 2.688-.719 5.875-1.687 48.25-14.906 89.406-48.063 114.625-92.375 5.656-9.938 11.594-23.094 15.531-34.531l1.438-4.188-1-2.531c-1.313-3.375-5.031-10.531-7.5-14.469-9.344-15-25.938-32.25-47.625-49.594-20.813-16.625-47.188-33.969-75.938-49.906-10.344-5.719-10.906-6-10.687-5.5zM5.344 153.969c-6.469 26.906-7.032 56.781-1.563 84.781 6.469 33.219 21.813 64.969 43.844 90.719 1.906 2.219 3.813 4.437 4.25 4.969 1.438 1.656 7.25 2.28 18.406 2.03 14.094-.343 27.531-2.812 46.094-8.562 31-9.562 70.25-28.344 109.344-52.312l4.281-2.625-36-.156-36.031-.157-5-2.625C80 231.72 27 189.031 8.375 153.531 7.344 151.594 6.469 150 6.406 150c-.062 0-.531 1.781-1.062 3.969zm0 0"/><path d="M260 241.5l-17.969 31.094-4.312 2.781c-20.031 12.844-45.063 26.844-66.281 37-42.97 20.625-78.72 30.906-105.75 30.406-3.126-.062-5.688-.062-5.657.031.032.282 7.875 7.375 11.313 10.282 46.437 39.031 107.25 54.687 167.312 43.125l5.063-.969 1.844-2.406c13.25-17.156 22.718-44.719 28.03-81.75 2.282-16.063 3.657-31.469 4.563-51.719.344-8.375.406-44 .031-47.063l-.218-1.937zm0 0"/></g></svg>