<svg xmlns="http://www.w3.org/2000/svg" width="px" height="18" viewBox="0 0 18 18"><path d="M16.148 5.332c.012.16.012.32.012.48 0 4.88-3.71 10.497-10.496 10.497A10.42 10.42 0 010 14.652c.297.036.582.047.89.047a7.4 7.4 0 004.583-1.574 3.692 3.692 0 01-3.45-2.559c.227.032.454.055.696.055.332 0 .66-.047.969-.125A3.693 3.693 0 01.73 6.875v-.047a3.64 3.64 0 001.668.469 3.686 3.686 0 01-1.14-4.934 10.486 10.486 0 007.605 3.864 4.11 4.11 0 01-.09-.848 3.687 3.687 0 013.688-3.688c1.062 0 2.02.446 2.695 1.164a7.282 7.282 0 002.34-.89 3.674 3.674 0 01-1.621 2.031A7.369 7.369 0 0018 3.426a7.873 7.873 0 01-1.852 1.906zm0 0"/></svg>