<svg xmlns="http://www.w3.org/2000/svg" width="px" height="44" viewBox="0 0 44 44"><path d="M15.125 22a6.875 6.875 0 1113.75 0 6.875 6.875 0 01-13.75 0zM22 0c1.52 0 2.75 1.23 2.75 2.75v2.977c6.91 1.16 12.367 6.613 13.52 13.523h2.98a2.749 2.749 0 110 5.5h-2.98c-1.153 6.91-6.61 12.367-13.52 13.52v2.98a2.749 2.749 0 11-5.5 0v-2.98c-6.91-1.153-12.363-6.61-13.523-13.52H2.75a2.749 2.749 0 110-5.5h2.977C6.887 12.34 12.34 6.887 19.25 5.727V2.75C19.25 1.23 20.48 0 22 0zM11 22c0 6.074 4.926 11 11 11s11-4.926 11-11-4.926-11-11-11-11 4.926-11 11zm0 0" id="surface1"/></svg>