<svg xmlns="http://www.w3.org/2000/svg" width="px" height="44" viewBox="0 0 39 44"><path d="M33.43 2.75H5.57C2.492 2.75 0 5.21 0 8.25v27.5c0 3.04 2.492 5.5 5.57 5.5h27.86c3.078 0 5.57-2.46 5.57-5.5V8.25c0-3.04-2.5-5.5-5.57-5.5zm-2.82 24.879l-1.012 4.332A1.354 1.354 0 0128.27 33C17.293 33 8.36 24.184 8.36 13.336c0-.629.433-1.168 1.054-1.305l4.387-1c.64-.148 1.297.18 1.562.778l2.024 4.664a1.33 1.33 0 01-.39 1.566l-2.345 1.898a15.123 15.123 0 006.942 6.852l1.918-2.312a1.37 1.37 0 011.59-.383l4.718 1.996c.606.258.938.91.79 1.539zm0 0" id="surface1"/></svg>